<svg width="24" height="24" viewBox="0 0 24 24" fill="none" xmlns="http://www.w3.org/2000/svg">
<g transform="translate(0.000000,24.000000) scale(0.100000,-0.100000)"
fill="#000000" stroke="none">
<path d="M69 203 c-22 -26 -18 -136 5 -162 19 -21 66 -29 66 -11 0 6 -8 10
-19 10 -32 0 -42 24 -39 92 2 48 7 63 18 63 11 0 16 -13 18 -47 2 -36 7 -48
19 -48 13 0 15 9 11 45 -8 70 -46 98 -79 58z"/>
<path d="M90 126 c0 -30 5 -58 10 -61 6 -4 10 17 10 54 0 34 -4 61 -10 61 -5
0 -10 -24 -10 -54z"/>
<path d="M160 155 c0 -14 5 -25 10 -25 6 0 10 11 10 25 0 14 -4 25 -10 25 -5
0 -10 -11 -10 -25z"/>
<path d="M160 95 c0 -8 -7 -15 -15 -15 -8 0 -15 -4 -15 -10 0 -5 7 -10 15 -10
8 0 15 -7 15 -15 0 -8 5 -15 10 -15 6 0 10 7 10 15 0 8 7 15 15 15 8 0 15 5
15 10 0 6 -7 10 -15 10 -8 0 -15 7 -15 15 0 8 -4 15 -10 15 -5 0 -10 -7 -10
-15z"/>
</g>
</svg>
