<svg width="24" height="24" viewBox="0 0 24 24" fill="none" xmlns="http://www.w3.org/2000/svg">
<g transform="translate(0.000000,24.000000) scale(0.100000,-0.100000)"
fill="#000000" stroke="none">
<path d="M64 217 c-3 -8 -4 -47 -2 -88 l3 -74 70 0 70 0 3 59 c3 53 0 62 -24
87 -22 23 -36 29 -71 29 -27 0 -46 -5 -49 -13z m76 -32 c0 -20 5 -25 25 -25
23 0 25 -4 25 -45 l0 -45 -55 0 -55 0 0 70 0 70 30 0 c25 0 30 -4 30 -25z"/>
<path d="M22 93 l3 -78 63 -3 c38 -2 62 1 62 8 0 6 -23 10 -55 10 l-55 0 0 70
c0 42 -4 70 -10 70 -7 0 -10 -29 -8 -77z"/>
</g>
</svg>
