<svg width="24" height="24" viewBox="0 0 24 24" fill="none" xmlns="http://www.w3.org/2000/svg">
<g transform="translate(0.000000,24.000000) scale(0.100000,-0.100000)"
fill="#000000" stroke="none">
<path d="M82 204 c4 -21 22 -23 26 -1 2 10 -3 17 -13 17 -10 0 -15 -6 -13 -16z"/>
<path d="M43 168 c-23 -11 -33 -58 -13 -58 6 0 10 9 10 20 0 11 5 20 11 20 6
0 8 -8 5 -17 -2 -10 -7 -34 -11 -53 -4 -19 -9 -43 -11 -52 -3 -10 -1 -18 5
-18 6 0 14 14 18 31 11 41 27 42 31 2 2 -18 7 -33 13 -33 13 0 11 67 -3 90
-16 25 -5 35 22 20 35 -19 34 -4 -2 29 -36 33 -42 35 -75 19z"/>
<path d="M150 85 c-7 -9 -5 -16 5 -25 10 -9 15 -9 15 -1 0 6 11 11 25 11 14 0
25 4 25 9 0 14 -59 19 -70 6z"/>
<path d="M190 51 c0 -6 -12 -12 -27 -12 -28 -2 -28 -2 -3 -6 14 -3 28 -9 31
-14 3 -6 11 -4 18 4 9 11 8 17 -4 27 -10 9 -15 9 -15 1z"/>
</g>
</svg>
