<svg viewBox="0 0 48 48" xmlns="http://www.w3.org/2000/svg"><g fill="#42a5f5"><path d="m24 12a3 3 0 0 0 -3 3v4a3 3 0 0 0 6 0v-4a3 3 0 0 0 -3-3zm1 7a1 1 0 0 1 -2 0v-4a1 1 0 0 1 2 0z"/><path d="m18 12a1 1 0 0 0 -1 1v3h-2v-3a1 1 0 0 0 -2 0v4a1 1 0 0 0 1 1h3v3a1 1 0 0 0 2 0v-8a1 1 0 0 0 -1-1z"/><path d="m34 12a1 1 0 0 0 -1 1v3h-2v-3a1 1 0 0 0 -2 0v4a1 1 0 0 0 1 1h3v3a1 1 0 0 0 2 0v-8a1 1 0 0 0 -1-1z"/></g><path d="m40 10v15a1 1 0 0 1 -1 1h-30a1 1 0 0 1 -1-1v-15h-2v15a3 3 0 0 0 3 3h30a3 3 0 0 0 3-3v-15z" fill="#424242"/><path d="m45 5h-1v2h1a1 1 0 0 1 1 1v23h-44v-23a1 1 0 0 1 1-1h1v-2h-1a3 3 0 0 0 -3 3v30a3 3 0 0 0 3 3h14.85l-.72 5h-2.13a1 1 0 0 0 0 2h18a1 1 0 0 0 0-2h-2.13l-.72-5h14.85a3 3 0 0 0 3-3v-30a3 3 0 0 0 -3-3zm-25.85 41 .72-5h8.26l.72 5zm26.85-8a1 1 0 0 1 -1 1h-42a1 1 0 0 1 -1-1v-5h44z" fill="#424242"/><path d="m23.62 36.92a.94.94 0 0 0 .76 0 1.15 1.15 0 0 0 .33-.21l.12-.15a.76.76 0 0 0 .09-.18.64.64 0 0 0 .08-.18 1.5 1.5 0 0 0 0-.2 1.05 1.05 0 0 0 -.29-.71 1.15 1.15 0 0 0 -.33-.21 1 1 0 0 0 -.76 0 1.15 1.15 0 0 0 -.33.21 1 1 0 0 0 0 1.42 1.15 1.15 0 0 0 .33.21z" fill="#42a5f5"/><path d="m39 0h-30a3 3 0 0 0 -3 3v5h36v-5a3 3 0 0 0 -3-3zm-28 5a1 1 0 1 1 1-1 1 1 0 0 1 -1 1zm4 0a1 1 0 1 1 1-1 1 1 0 0 1 -1 1zm4 0a1 1 0 1 1 1-1 1 1 0 0 1 -1 1zm18 0h-8a1 1 0 0 1 0-2h8a1 1 0 0 1 0 2z" fill="#42a5f5"/></svg>